<?xml version="1.0" encoding="UTF-8" standalone="no"?><!DOCTYPE svg PUBLIC "-//W3C//DTD SVG 1.1//EN" "http://www.w3.org/Graphics/SVG/1.1/DTD/svg11.dtd"><svg width="100%" height="100%" viewBox="0 0 1000 180" version="1.1" xmlns="http://www.w3.org/2000/svg" xmlns:xlink="http://www.w3.org/1999/xlink" xml:space="preserve" xmlns:serif="http://www.serif.com/" style="fill-rule:evenodd;clip-rule:evenodd;stroke-linejoin:round;stroke-miterlimit:2;"><rect id="Banner" x="0" y="0" width="1000" height="180" style="fill:none;"/><g id="Artboard1"><path d="M122.269,31.974c-0.576,-2.88 -1.584,-4.32 -3.024,-4.608c-12.672,2.592 -22.464,4.752 -29.376,6.48c-22.32,5.472 -39.168,9.36 -50.544,11.952c-2.448,0.576 -3.6,2.304 -3.6,5.184c0,2.88 1.296,4.176 4.032,4.176c4.896,-1.008 9.36,-2.016 13.104,-3.024c7.488,-1.728 14.832,-3.456 22.32,-5.328c-1.728,22.896 -2.448,39.312 -2.448,49.392c0,17.712 0.576,32.688 2.016,44.928c0.288,2.592 1.872,3.888 4.896,4.176c2.88,-0.864 4.32,-3.6 4.32,-8.208l0,-7.92c0,-2.304 -0.72,-4.176 -2.016,-5.616c-0.432,-5.76 -0.576,-12.528 -0.576,-20.304c0,-17.28 0.864,-36.864 2.736,-58.608l18.576,-4.752c1.008,0.864 2.448,1.44 4.32,1.584l12.096,-5.04c2.016,-0.72 3.168,-2.16 3.168,-4.464Z" style="fill-rule:nonzero;stroke:#fff;stroke-width:7px;"/><path d="M212.269,142.71c0,-0.576 -0.432,-2.448 -1.008,-5.616c-6.192,-28.224 -16.848,-60.336 -31.968,-96.624c-2.736,-6.336 -5.328,-9.648 -7.92,-9.648c-2.016,0 -4.32,3.456 -6.912,10.224c-10.8,26.496 -18.144,48.672 -22.176,66.384c-6.912,0.72 -11.376,1.296 -13.392,1.584c-3.6,0.576 -5.328,2.016 -5.328,4.608c0,2.88 1.44,4.176 4.608,4.176c4.752,-0.576 8.928,-1.296 12.384,-1.872c-0.864,4.464 -1.44,7.776 -1.728,9.792c-0.576,3.744 -1.008,6.624 -1.296,8.784c0,5.184 1.728,7.92 5.472,7.92c1.872,0 3.312,-1.152 4.176,-3.456c-0.288,-1.872 -0.432,-3.6 -0.432,-5.184c0,-4.032 0.72,-10.368 2.448,-18.72c9.216,-0.864 16.272,-1.44 21.312,-1.44c10.368,0 19.296,1.152 26.928,3.312c1.728,6.768 3.168,11.808 4.032,15.264c-0.432,0.864 -0.576,1.584 -0.576,2.16c0,1.44 0.72,3.744 2.448,7.056c1.44,3.312 2.88,5.04 4.032,5.04c3.168,0 4.896,-1.296 4.896,-3.744Zm-17.424,-35.136c-8.496,-1.584 -16.272,-2.448 -23.472,-2.448c-3.888,0 -10.656,0.432 -20.304,1.296c5.184,-20.736 11.952,-41.328 20.448,-62.064c4.896,10.08 10.224,23.328 15.84,39.744c2.304,7.056 4.896,14.832 7.488,23.472Z" style="fill-rule:nonzero;stroke:#fff;stroke-width:7px;"/><path d="M304.285,45.798c0,-1.152 -0.576,-2.16 -1.44,-3.312c-1.008,-0.864 -2.016,-1.44 -3.168,-1.44c-4.608,0 -12.96,4.176 -24.768,12.384c-9.504,6.768 -17.136,12.96 -23.04,18.72l-17.568,16.704c3.456,-19.728 8.208,-38.448 14.544,-56.16c2.304,-6.624 3.6,-10.656 3.6,-11.952c0,-2.448 -1.44,-3.744 -4.32,-3.744c-1.728,0 -3.024,1.296 -4.032,3.888c-4.032,9.648 -7.92,21.888 -11.52,36.576c-3.456,14.4 -6.048,28.08 -7.632,41.328c-1.008,8.352 -1.44,16.992 -1.44,25.632l0,9.792c0,0.288 0.288,2.016 0.864,4.896c0.576,3.744 2.16,5.616 4.752,5.616c0.864,0 1.872,-0.432 2.736,-1.296c0.72,-0.864 1.152,-1.872 1.152,-2.88c0,-0.144 -0.144,-2.304 -0.432,-6.336c-0.288,-4.176 -0.432,-8.928 -0.432,-14.256c0,-5.328 0.288,-11.952 1.008,-20.016c2.88,-0.144 5.904,-2.016 9.36,-5.472c11.232,15.408 23.04,27.648 35.712,36.72c2.16,1.584 4.608,3.312 7.2,5.184c3.168,2.16 5.904,3.456 8.208,3.888c0.864,0 1.728,-0.576 2.592,-1.44c0.72,-1.008 1.152,-2.016 1.152,-3.168c0,-1.44 -2.304,-4.464 -6.912,-8.928c-4.608,-4.608 -7.632,-6.912 -9.072,-6.912c-0.72,0 -1.44,0.144 -2.304,0.144c-10.656,-6.768 -20.736,-17.424 -30.384,-32.112c15.264,-14.976 28.512,-25.776 39.744,-32.4c1.872,0.864 3.312,1.296 4.176,1.296c0.288,0 1.44,-0.432 3.312,-1.584c1.728,-1.152 3.6,-2.304 5.616,-3.744c1.728,-1.152 2.736,-3.024 2.736,-5.616Z" style="fill-rule:nonzero;stroke:#fff;stroke-width:7px;"/><path d="M370.957,117.078c0,-3.168 -1.44,-4.752 -4.32,-4.752c-1.584,0 -3.456,1.584 -5.616,4.752c-3.456,4.608 -6.192,7.632 -8.496,9.36c-3.168,2.304 -7.344,3.312 -12.384,3.312c-7.2,0 -12.816,-2.16 -16.848,-6.768c-4.032,-4.464 -6.048,-10.512 -6.048,-18c0,-1.728 0.144,-3.744 0.432,-5.904c2.88,-1.152 7.2,-2.448 12.96,-3.888c9.504,-2.304 17.424,-4.176 23.76,-5.472c1.44,1.872 3.312,2.736 5.616,2.736c1.152,0 3.168,-1.152 6.336,-3.456c3.024,-2.16 4.608,-4.32 4.608,-6.48c0,-2.736 -1.44,-4.176 -4.32,-4.176c-1.296,0 -3.744,0.288 -7.2,0.864c-10.08,1.872 -23.04,5.04 -39.168,9.504c4.464,-10.368 7.488,-17.28 9.216,-20.736c1.152,-2.016 2.16,-4.032 3.312,-6.048c1.44,-2.88 2.304,-4.896 2.304,-6.048c0,-1.44 -0.72,-3.6 -1.872,-6.336c10.8,-3.744 19.728,-5.616 26.64,-5.616c0.864,0 1.872,0.288 3.312,0.72c1.296,0.576 2.448,0.72 3.312,0.72c2.88,0 4.464,-1.296 4.464,-3.888c0,-1.872 -0.72,-3.312 -2.16,-4.176c-2.448,-1.728 -5.616,-2.592 -9.36,-2.592c-11.952,0.288 -25.056,3.888 -39.168,10.944c-5.472,2.88 -8.208,5.328 -8.208,7.488c0,3.024 1.44,4.464 4.464,4.464c0.576,0 4.464,-1.728 11.376,-5.472c-12.816,22.608 -19.152,39.744 -19.152,51.264c0,10.512 2.592,19.008 8.064,25.344c5.616,6.912 13.392,10.224 23.184,10.224c6.624,0 12.528,-1.584 18,-4.752c5.472,-3.312 9.504,-8.064 12.096,-14.256c0.576,-1.152 0.864,-2.016 0.864,-2.88Z" style="fill-rule:nonzero;stroke:#fff;stroke-width:7px;"/><path d="M458.365,38.454c0,-3.456 -1.44,-5.184 -4.32,-5.184c-2.16,0 -4.608,3.312 -7.2,9.648c-2.592,6.48 -3.888,12.096 -3.888,16.848c0,2.016 1.152,3.6 3.6,5.04l-4.896,36.864c-1.584,11.952 -2.304,21.744 -2.304,29.52c0,8.064 2.016,12.096 6.192,12.096c0.864,0 1.872,-0.576 2.736,-1.44c0.72,-1.152 1.152,-2.16 1.152,-3.312c0,-1.584 -0.576,-3.024 -1.44,-4.176c-0.288,-2.16 -0.432,-3.888 -0.432,-5.184c0,-3.312 0.72,-11.232 2.304,-23.616l5.904,-46.8c1.728,-13.248 2.592,-20.016 2.592,-20.304Z" style="fill-rule:nonzero;stroke:#fff;stroke-width:7px;"/><path d="M558.157,31.974c-0.576,-2.88 -1.584,-4.32 -3.024,-4.608c-12.672,2.592 -22.464,4.752 -29.376,6.48c-22.32,5.472 -39.168,9.36 -50.544,11.952c-2.448,0.576 -3.6,2.304 -3.6,5.184c0,2.88 1.296,4.176 4.032,4.176c4.896,-1.008 9.36,-2.016 13.104,-3.024c7.488,-1.728 14.832,-3.456 22.32,-5.328c-1.728,22.896 -2.448,39.312 -2.448,49.392c0,17.712 0.576,32.688 2.016,44.928c0.288,2.592 1.872,3.888 4.896,4.176c2.88,-0.864 4.32,-3.6 4.32,-8.208l0,-7.92c0,-2.304 -0.72,-4.176 -2.016,-5.616c-0.432,-5.76 -0.576,-12.528 -0.576,-20.304c0,-17.28 0.864,-36.864 2.736,-58.608l18.576,-4.752c1.008,0.864 2.448,1.44 4.32,1.584l12.096,-5.04c2.016,-0.72 3.168,-2.16 3.168,-4.464Z" style="fill-rule:nonzero;stroke:#fff;stroke-width:7px;"/><path d="M673.933,117.078c0,-3.168 -1.44,-4.752 -4.32,-4.752c-1.584,0 -3.456,1.584 -5.616,4.752c-3.456,4.608 -6.192,7.632 -8.496,9.36c-3.168,2.304 -7.344,3.312 -12.384,3.312c-7.2,0 -12.816,-2.16 -16.848,-6.768c-4.032,-4.464 -6.048,-10.512 -6.048,-18c0,-1.728 0.144,-3.744 0.432,-5.904c2.88,-1.152 7.2,-2.448 12.96,-3.888c9.504,-2.304 17.424,-4.176 23.76,-5.472c1.44,1.872 3.312,2.736 5.616,2.736c1.152,0 3.168,-1.152 6.336,-3.456c3.024,-2.16 4.608,-4.32 4.608,-6.48c0,-2.736 -1.44,-4.176 -4.32,-4.176c-1.296,0 -3.744,0.288 -7.2,0.864c-10.08,1.872 -23.04,5.04 -39.168,9.504c4.464,-10.368 7.488,-17.28 9.216,-20.736c1.152,-2.016 2.16,-4.032 3.312,-6.048c1.44,-2.88 2.304,-4.896 2.304,-6.048c0,-1.44 -0.72,-3.6 -1.872,-6.336c10.8,-3.744 19.728,-5.616 26.64,-5.616c0.864,0 1.872,0.288 3.312,0.72c1.296,0.576 2.448,0.72 3.312,0.72c2.88,0 4.464,-1.296 4.464,-3.888c0,-1.872 -0.72,-3.312 -2.16,-4.176c-2.448,-1.728 -5.616,-2.592 -9.36,-2.592c-11.952,0.288 -25.056,3.888 -39.168,10.944c-5.472,2.88 -8.208,5.328 -8.208,7.488c0,3.024 1.44,4.464 4.464,4.464c0.576,0 4.464,-1.728 11.376,-5.472c-12.816,22.608 -19.152,39.744 -19.152,51.264c0,10.512 2.592,19.008 8.064,25.344c5.616,6.912 13.392,10.224 23.184,10.224c6.624,0 12.528,-1.584 18,-4.752c5.472,-3.312 9.504,-8.064 12.096,-14.256c0.576,-1.152 0.864,-2.016 0.864,-2.88Z" style="fill-rule:nonzero;stroke:#fff;stroke-width:7px;"/><path d="M774.301,142.71c0,-0.576 -0.432,-2.448 -1.008,-5.616c-6.192,-28.224 -16.848,-60.336 -31.968,-96.624c-2.736,-6.336 -5.328,-9.648 -7.92,-9.648c-2.016,0 -4.32,3.456 -6.912,10.224c-10.8,26.496 -18.144,48.672 -22.176,66.384c-6.912,0.72 -11.376,1.296 -13.392,1.584c-3.6,0.576 -5.328,2.016 -5.328,4.608c0,2.88 1.44,4.176 4.608,4.176c4.752,-0.576 8.928,-1.296 12.384,-1.872c-0.864,4.464 -1.44,7.776 -1.728,9.792c-0.576,3.744 -1.008,6.624 -1.296,8.784c0,5.184 1.728,7.92 5.472,7.92c1.872,0 3.312,-1.152 4.176,-3.456c-0.288,-1.872 -0.432,-3.6 -0.432,-5.184c0,-4.032 0.72,-10.368 2.448,-18.72c9.216,-0.864 16.272,-1.44 21.312,-1.44c10.368,0 19.296,1.152 26.928,3.312c1.728,6.768 3.168,11.808 4.032,15.264c-0.432,0.864 -0.576,1.584 -0.576,2.16c0,1.44 0.72,3.744 2.448,7.056c1.44,3.312 2.88,5.04 4.032,5.04c3.168,0 4.896,-1.296 4.896,-3.744Zm-17.424,-35.136c-8.496,-1.584 -16.272,-2.448 -23.472,-2.448c-3.888,0 -10.656,0.432 -20.304,1.296c5.184,-20.736 11.952,-41.328 20.448,-62.064c4.896,10.08 10.224,23.328 15.84,39.744c2.304,7.056 4.896,14.832 7.488,23.472Z" style="fill-rule:nonzero;stroke:#fff;stroke-width:7px;"/><path d="M834.781,42.054c0,-3.888 -2.304,-5.904 -6.768,-5.904c-3.744,0 -6.624,1.584 -8.352,4.608c-8.64,3.456 -15.552,7.776 -21.024,12.672c-7.632,6.768 -11.376,13.968 -11.376,21.456c0,6.48 2.016,11.52 6.336,15.12c2.016,1.728 6.48,4.32 13.68,7.488c6.048,2.88 9.792,4.896 11.52,6.048c2.592,2.304 3.888,5.184 3.888,8.784c0,5.616 -3.168,10.368 -9.216,14.4c-5.616,3.744 -11.232,5.472 -16.704,5.472c-0.864,0 -2.16,-0.144 -3.888,-0.72c-1.728,-0.288 -2.88,-0.576 -3.744,-0.576c-1.296,0 -2.304,0.576 -3.168,1.584c-0.864,1.152 -1.296,2.16 -1.296,3.312c0,4.032 3.888,6.048 11.664,6.048c8.064,0 15.696,-2.592 23.04,-7.776c8.064,-5.76 12.096,-12.816 12.096,-20.88c0,-6.336 -2.16,-11.52 -6.192,-15.408c-2.592,-2.304 -7.344,-5.04 -14.4,-8.208c-5.76,-2.592 -9.216,-4.32 -10.368,-5.328c-3.024,-2.16 -4.464,-5.04 -4.464,-8.784c0,-7.056 4.464,-13.536 13.392,-19.44c6.48,-4.176 13.824,-7.344 22.032,-9.36c2.16,-0.576 3.312,-2.016 3.312,-4.608Z" style="fill-rule:nonzero;stroke:#fff;stroke-width:7px;"/><path d="M918.301,40.182c0,-3.024 -1.584,-4.608 -4.464,-4.608c-2.592,0 -5.904,3.6 -10.224,10.512c-6.336,10.512 -13.824,25.776 -22.32,45.936c-8.208,-21.024 -16.704,-37.584 -25.344,-49.968c-2.592,-3.6 -4.896,-5.472 -6.624,-5.472c-1.152,0 -2.016,0.576 -2.88,1.44c-1.008,0.864 -1.44,1.872 -1.44,3.024c0,1.728 1.152,3.888 3.456,6.624c4.032,5.04 7.92,11.376 11.664,18.864c2.16,4.32 5.04,10.656 8.784,19.296c2.592,6.048 5.184,11.52 7.92,16.704c-6.912,16.992 -10.368,29.088 -10.368,36.144c0,4.752 1.584,7.2 5.04,7.2c3.168,0 4.896,-1.728 5.04,-5.184c-0.72,-1.728 -1.008,-3.312 -1.008,-5.04c0,-0.432 0.432,-2.16 1.296,-5.328c7.056,-24.768 18,-50.256 32.688,-76.32c2.16,-3.744 3.744,-6.192 4.752,-7.2c2.592,-2.88 4.032,-5.04 4.032,-6.624Z" style="fill-rule:nonzero;stroke:#fff;stroke-width:7px;"/><path d="M961.357,42.774c0,-3.024 -1.296,-4.608 -3.744,-4.608c-1.728,0 -3.6,1.152 -5.616,3.168c-1.152,2.448 -1.728,4.32 -2.016,5.76c-0.288,1.44 -0.432,2.304 -0.432,2.592c0,0.864 0.144,1.728 0.432,2.448c-1.44,7.488 -2.736,15.84 -3.6,24.768c-0.432,4.896 -0.864,11.952 -1.296,21.456c-0.432,7.632 -0.576,11.808 -0.576,12.672c0,2.88 1.296,4.32 4.032,4.32c2.592,0 4.032,-1.584 4.32,-5.04c0.144,-4.608 0.72,-13.104 1.728,-25.488c0.864,-12.24 2.88,-24.768 5.904,-37.44c0.576,-2.448 0.864,-4.032 0.864,-4.608Zm-6.768,95.904c0,-4.176 -1.296,-6.768 -3.6,-7.776c-1.152,-0.72 -2.016,-1.152 -2.88,-1.152c-4.32,0 -6.624,2.16 -6.912,6.48c0,1.296 0,2.304 0.288,3.024c0.288,1.152 1.008,2.16 2.448,2.88c1.152,1.872 2.736,2.88 4.752,2.88c3.888,0 5.904,-2.16 5.904,-6.336Z" style="fill-rule:nonzero;stroke:#fff;stroke-width:7px;"/></g></svg>