<?xml version="1.0" encoding="UTF-8" standalone="no"?><!DOCTYPE svg PUBLIC "-//W3C//DTD SVG 1.1//EN" "http://www.w3.org/Graphics/SVG/1.1/DTD/svg11.dtd"><svg width="100%" height="100%" viewBox="0 0 200 200" version="1.1" xmlns="http://www.w3.org/2000/svg" xmlns:xlink="http://www.w3.org/1999/xlink" xml:space="preserve" xmlns:serif="http://www.serif.com/" style="fill-rule:evenodd;clip-rule:evenodd;stroke-linecap:round;stroke-linejoin:round;stroke-miterlimit:1.5;"><rect id="nuclear" x="0" y="0" width="200" height="200" style="fill:#ecf0f3;"/><clipPath id="_clip1"><rect x="0" y="0" width="200" height="200"/></clipPath><g clip-path="url(#_clip1)"><path d="M43.97,82.083c-12.887,7.628 -24.818,-0.921 -29.943,-6.783c-5.126,-5.862 -6.136,-17.462 -3.01,-23.99c8.556,-17.867 30.151,-12.774 30.151,-12.774c0,0 -0.094,-17.379 9.168,-24.596c8.751,-6.818 30.73,2.67 30.611,5.597c0,0 8.824,-9.72 19.345,-9.304c10.104,0.4 18.411,12.974 18.411,12.974c0,0 11.456,-12.26 27.205,-7.082c14.88,4.893 15.038,21.786 15.038,21.786c0,0 28.779,-3.662 29.755,17.8c1.567,34.429 -31.031,29.65 -31.031,29.65c0,0 -0.481,13.913 -17.279,15.86c-0.27,0.031 -6.535,0.385 -6.83,0.385c-8.079,0.009 -19.414,-14.219 -19.414,-14.219c0,0 -12.022,6.463 -17.122,4.847c-4.878,-1.546 -12.316,-9.166 -12.316,-9.166c0,0 -9.932,10.664 -16.576,11.169c-7.49,0.569 -17.313,-2.311 -26.163,-12.154Z" style="fill:none;stroke:#000;stroke-width:20px;"/><path d="M74.576,92.796c0,0 2.543,50.748 0.813,58.95c-1.73,8.202 -18.274,32.361 -27.474,37.005" style="fill:none;stroke:#000;stroke-width:20px;"/><path d="M115.691,91.944c0,0 -4.587,47.108 -1.867,57.764c2.719,10.657 7.172,33.741 29.774,40.072" style="fill:none;stroke:#000;stroke-width:20px;"/><path d="M40.845,138.051c3.593,-9.139 13.774,-9.366 27.836,-11.85c14.062,-2.485 31.142,-2.277 43.105,-0.938c11.963,1.339 35.334,9.093 36.039,12.7c0.704,3.607 -23.629,15.682 -34.722,16.216c-11.094,0.535 -27.637,1.078 -38.246,-0.606c-10.609,-1.683 -37.446,-6.788 -34.012,-15.522Z" style="fill:none;stroke:#000;stroke-width:20px;"/></g></svg>